{"accessors" : [{"bufferView" : 0, "byteOffset" : 0, "componentType" : 5123, "count" : 8856, "type" : "SCALAR", "max" : [6277], "min" : [0]}, {"bufferView" : 1, "byteOffset" : 0, "componentType" : 5126, "count" : 6278, "type" : "VEC3", "max" : [0.7782109975814819, 0.25847500562667847, 0.48687300086021423], "min" : [-0.7687879800796509, -0.24887000024318695, -0.8681039810180664], "name" : "POSITION"}, {"bufferView" : 1, "byteOffset" : 12, "componentType" : 5126, "count" : 6278, "type" : "VEC2", "max" : [0.9674860239028931, -0], "min" : [0, -0.8628000020980835], "name" : "TEXCOORD_0"}, {"bufferView" : 1, "byteOffset" : 20, "componentType" : 5126, "count" : 6278, "type" : "VEC3", "max" : [1.0000044107437134, 1.000001311302185, 1.0000044107437134], "min" : [-1.0000044107437134, -0.9999960064888, -1.0000029802322388], "name" : "NORMAL"}], "asset" : {"generator" : "Aspose.3D 22.6.1", "version" : "2.0"}, "buffers" : [{"uri" : "data:application/octet-stream;base64,", "byteLength" : 301112}], "bufferViews" : [{"buffer" : 0, "byteOffset" : 0, "byteLength" : 17712, "target" : 34963}, {"buffer" : 0, "byteOffset" : 17716, "byteLength" : 283392, "byteStride" : 32, "target" : 34962}], "meshes" : [{"primitives" : [{"attributes" : {"POSITION" : 1, "TEXCOORD_0" : 2, "NORMAL" : 3}, "indices" : 0, "mode" : 4}], "name" : ""}], "nodes" : [{"mesh" : 0, "name" : "Glasses"}], "scene" : 0, "scenes" : [{"nodes" : [0]}]}