{"accessors" : [{"bufferView" : 0, "byteOffset" : 0, "componentType" : 5123, "count" : 14394, "type" : "SCALAR", "max" : [11445], "min" : [0]}, {"bufferView" : 1, "byteOffset" : 0, "componentType" : 5126, "count" : 11446, "type" : "VEC3", "max" : [8.128999710083008, 4.411252021789551, 6.129644870758057], "min" : [-8.128999710083008, -0.4926379919052124, -7.592764854431152], "name" : "POSITION"}, {"bufferView" : 1, "byteOffset" : 12, "componentType" : 5126, "count" : 11446, "type" : "VEC2", "max" : [0.7797999978065491, -0.02199999988079071], "min" : [0.03200000151991844, -0.9807999730110168], "name" : "TEXCOORD_0"}], "asset" : {"generator" : "Aspose.3D 22.6", "version" : "2.0"}, "buffers" : [{"uri" : "data:application/octet-stream;base64,", "byteLength" : 316676}], "bufferViews" : [{"buffer" : 0, "byteOffset" : 0, "byteLength" : 28788, "target" : 34963}, {"buffer" : 0, "byteOffset" : 28792, "byteLength" : 287880, "byteStride" : 20, "target" : 34962}], "meshes" : [{"primitives" : [{"attributes" : {"POSITION" : 1, "TEXCOORD_0" : 2}, "indices" : 0, "mode" : 4}], "name" : ""}], "nodes" : [{"mesh" : 0, "name" : ""}], "scene" : 0, "scenes" : [{"nodes" : [0]}]}